<svg width="15" height="14" viewBox="0 0 15 14" fill="none" xmlns="http://www.w3.org/2000/svg">
<path d="M0.48051 5.83373L1.75663 5.6283C1.88316 5.1426 2.0743 4.68344 2.32191 4.26101L1.56617 3.21345C1.4104 2.99713 1.43761 2.66586 1.62468 2.47742L2.47974 1.62236C2.66884 1.43326 2.99809 1.4074 3.21577 1.56318L4.26333 2.31961C4.68644 2.07064 5.14492 1.88018 5.63062 1.75365L5.83741 0.47685C5.8789 0.215639 6.13059 0 6.39656 0H7.60602C7.87199 0 8.12437 0.21496 8.16655 0.47753L8.37334 1.75433C8.85971 1.88086 9.31819 2.07132 9.74062 2.32029L10.7882 1.56386C11.0038 1.40808 11.3344 1.43461 11.5229 1.62304L12.3779 2.4781C12.5663 2.66585 12.5929 2.99713 12.4371 3.21207L11.6814 4.25964C11.9297 4.68275 12.1201 5.14123 12.2473 5.6276L13.5221 5.83372C13.7853 5.87657 13.9996 6.12826 13.9996 6.39424L14.001 7.60438C14.001 7.86967 13.7867 8.12273 13.5234 8.16491L12.2473 8.3717C12.1201 8.8574 11.929 9.31655 11.6807 9.73899L12.4364 10.7865C12.5922 11.0029 12.5663 11.3328 12.3779 11.5205L11.5229 12.3769C11.3344 12.5654 11.0045 12.5919 10.7875 12.4354L9.73995 11.6797C9.31684 11.928 8.85836 12.1191 8.37266 12.2457L8.16655 13.5211C8.12369 13.785 7.87133 13.9993 7.60534 13.9993L6.39588 14C6.12924 13.9993 5.87753 13.785 5.834 13.5218L5.62856 12.2457C5.14219 12.1191 4.68371 11.9287 4.2606 11.6797L3.21371 12.4354C2.9974 12.5919 2.66681 12.5654 2.47837 12.3769L1.6233 11.5219C1.4342 11.3335 1.40834 11.0035 1.56412 10.7865L2.31986 9.73965C2.07157 9.31654 1.88111 8.85806 1.7539 8.37236L0.478457 8.16625C0.215208 8.12339 0.000248909 7.87103 0.000248909 7.60437V6.3949C0.00160885 6.12826 0.216566 5.87656 0.480494 5.8337L0.48051 5.83373ZM7.00122 10.5341C8.95282 10.5341 10.5358 8.95192 10.5358 6.99961C10.5358 5.04729 8.95353 3.46507 7.00122 3.46507C5.04891 3.46507 3.46668 5.04729 3.46668 6.99961C3.46668 8.95192 5.04959 10.5341 7.00122 10.5341Z" fill="#A5B3B9"/>
</svg>
